HIERARCHY
ROOT Hips
{
	OFFSET 0.00 0.00 0.00
	CHANNELS 6 Xposition Yposition Zposition Xrotation Yrotation Zrotation
	JOINT Spine
	{
		OFFSET 0.00000 1.15266 1.72900
		CHANNELS 3 Xrotation Yrotation Zrotation
		JOINT Spine1
		{
			OFFSET 0.00000 0.40032 2.27031
			CHANNELS 3 Xrotation Yrotation Zrotation
			JOINT Spine2
			{
				OFFSET 0.00000 0.20092 2.29656
				CHANNELS 3 Xrotation Yrotation Zrotation
				JOINT Spine3
				{
					OFFSET 0.00000 0.00000 2.30533
					CHANNELS 3 Xrotation Yrotation Zrotation
					JOINT Neck
					{
						OFFSET 0.00000 -0.86449 6.05149
						CHANNELS 3 Xrotation Yrotation Zrotation
						JOINT Head
						{
							OFFSET 0.00000 -0.55043 3.12167
							CHANNELS 3 Xrotation Yrotation Zrotation
							End Site
							{
								OFFSET 0.00000 0.00000 3.73175
							}
						}
					}
					JOINT RightShoulder
					{
						OFFSET -0.78828 -1.31380 4.25672
						CHANNELS 3 Xrotation Yrotation Zrotation
						JOINT RightArm
						{
							OFFSET -3.91513 0.00000 0.00000
							CHANNELS 3 Xrotation Yrotation Zrotation
							JOINT RightForeArm
							{
								OFFSET -6.91491 0.00000 0.00000
								CHANNELS 3 Xrotation Yrotation Zrotation
								JOINT RightHand
								{
									OFFSET -6.09622 0.00000 0.00000
									CHANNELS 3 Xrotation Yrotation Zrotation
									JOINT RightHandEnd
									{
										OFFSET -1.74995 0.00000 0.00000
										CHANNELS 3 Xrotation Yrotation Zrotation
										End Site
										{
											OFFSET -1.74995 0.00000 0.00000
										}
									}
									JOINT RightHandThumb1
									{
										OFFSET -0.69998 -1.16663 -0.46665
										CHANNELS 3 Yrotation Xrotation Zrotation
										End Site
										{
											OFFSET -1.69032 -0.45292 0.00000
										}
									}
								}
							}
						}
					}
					JOINT LeftShoulder
					{
						OFFSET 0.78828 -1.31380 4.25672
						CHANNELS 3 Xrotation Yrotation Zrotation
						JOINT LeftArm
						{
							OFFSET 3.91513 0.00000 0.00000
							CHANNELS 3 Xrotation Yrotation Zrotation
							JOINT LeftForeArm
							{
								OFFSET 6.91491 0.00000 0.00000
								CHANNELS 3 Xrotation Yrotation Zrotation
								JOINT LeftHand
								{
									OFFSET 6.09622 0.00000 0.00000
									CHANNELS 3 Xrotation Yrotation Zrotation
									JOINT LeftHandEnd
									{
										OFFSET 1.74995 0.00000 0.00000
										CHANNELS 3 Xrotation Yrotation Zrotation
										End Site
										{
											OFFSET 1.74995 0.00000 0.00000
										}
									}
									JOINT LeftHandThumb1
									{
										OFFSET 0.69998 -1.16663 -0.46665
										CHANNELS 3 Yrotation Xrotation Zrotation
										End Site
										{
											OFFSET 1.69032 -0.45292 0.00000
										}
									}
								}
							}
						}
					}
				}
			}
		}
	}
	JOINT RightUpLeg
	{
		OFFSET -2.33857 0.00000 -0.68318
		CHANNELS 3 Xrotation Yrotation Zrotation
		JOINT RightLeg
		{
			OFFSET 0.00000 0.00000 -10.74496
			CHANNELS 3 Xrotation Yrotation Zrotation
			JOINT RightFoot
			{
				OFFSET 0.00000 0.00000 -10.93085
				CHANNELS 3 Xrotation Yrotation Zrotation
				JOINT RightToeBase
				{
					OFFSET 0.00000 -4.08727 -1.48765
					CHANNELS 3 Xrotation Yrotation Zrotation
					End Site
					{
						OFFSET 0.00000 -1.89187 -0.00000
					}
				}
			}
		}
	}
	JOINT LeftUpLeg
	{
		OFFSET 2.33857 0.00000 -0.68318
		CHANNELS 3 Xrotation Yrotation Zrotation
		JOINT LeftLeg
		{
			OFFSET 0.00000 0.00000 -10.74496
			CHANNELS 3 Xrotation Yrotation Zrotation
			JOINT LeftFoot
			{
				OFFSET 0.00000 0.00000 -10.93085
				CHANNELS 3 Xrotation Yrotation Zrotation
				JOINT LeftToeBase
				{
					OFFSET 0.00000 -4.08727 -1.48765
					CHANNELS 3 Xrotation Yrotation Zrotation
					End Site
					{
						OFFSET 0.00000 -1.89187 -0.00000
					}
				}
			}
		}
	}
}
MOTION
Frames: 12
Frame Time: 0.008342
 -1.0242 -116.3261 24.5247 -6.4540 -1.4324 173.4201 1.2389 1.2265 0.2313 1.0562 -1.1855 0.0634 -0.5816 3.0598 5.4882 -0.9411 -0.5100 0.5708 -2.3553 -1.6854 -8.2968 4.2652 -3.7089 -14.3989 -10.1336 3.3643 -0.1302 -1.9882 0.3297 -2.5799 0.0000 0.0000 16.4723 -11.7232 4.8011 -9.2736 0.0000 -0.0000 -0.0000 0.0000 0.0000 0.0000 -8.1727 -3.0047 5.1473 -5.5593 7.9222 -4.3688 -0.0000 -0.0000 -1.0294 -1.5662 -8.4831 10.0137 -0.0000 0.0000 -0.0000 0.0000 -0.0000 -0.0000 -7.5004 -0.2383 -5.9524 4.8220 0.0000 0.0000 -3.5041 -0.6211 12.7565 -3.2664 0.0000 -0.0000 -3.8396 -1.5177 -2.0495 -3.1533 0.0000 -0.0000 -1.6543 7.8309 1.4916 -15.7485 0.0000 -0.0000
 -1.0254 -116.3237 24.5247 -6.4587 -1.4327 173.4180 1.2535 1.2253 0.2316 1.0599 -1.1920 0.0617 -0.5867 3.0601 5.4959 -0.9452 -0.5068 0.5653 -2.3632 -1.6814 -8.2990 4.2595 -3.7115 -14.4072 -10.1274 3.3653 -0.1237 -1.9516 0.3186 -2.5998 0.0000 0.0000 16.4595 -11.7101 4.8037 -9.2780 0.0000 -0.0000 -0.0000 0.0000 -0.0000 -0.0000 -8.1705 -3.0155 5.1463 -5.5667 7.9436 -4.3642 -0.0000 -0.0000 -1.0311 -1.5641 -8.5152 10.0267 0.0000 -0.0000 0.0000 0.0000 -0.0000 0.0000 -7.4968 -0.2358 -5.9453 4.8165 0.0000 0.0000 -3.5033 -0.6279 12.7503 -3.2706 0.0000 -0.0000 -3.8401 -1.5164 -2.0622 -3.1534 0.0000 -0.0000 -1.6492 7.8502 1.5054 -15.6987 0.0000 -0.0000
 -1.0270 -116.3207 24.5247 -6.4667 -1.4332 173.4177 1.2670 1.2216 0.2299 1.0649 -1.1977 0.0588 -0.5871 3.0604 5.5055 -0.9495 -0.5058 0.5599 -2.3776 -1.6720 -8.3025 4.2541 -3.7157 -14.4164 -10.1193 3.3677 -0.1206 -1.9094 0.3071 -2.6201 0.0000 0.0000 16.4424 -11.6988 4.8026 -9.2854 0.0000 0.0000 0.0000 -0.0000 0.0000 -0.0000 -8.1670 -3.0259 5.1436 -5.5755 7.9700 -4.3576 -0.0000 -0.0000 -1.0349 -1.5659 -8.5531 10.0440 0.0000 -0.0000 0.0000 0.0000 -0.0000 0.0000 -7.4939 -0.2322 -5.9422 4.8086 0.0000 0.0000 -3.5015 -0.6362 12.7460 -3.2716 0.0000 -0.0000 -3.8444 -1.5142 -2.0818 -3.1518 0.0000 -0.0000 -1.6429 7.8703 1.5240 -15.6400 0.0000 -0.0000
 -1.0293 -116.3182 24.5246 -6.4984 -1.4293 173.4180 1.2671 1.2154 0.2266 1.0683 -1.2003 0.0557 -0.5908 3.0581 5.5162 -0.9527 -0.5020 0.5541 -2.3936 -1.6621 -8.3066 4.2436 -3.7197 -14.4249 -10.1120 3.3678 -0.1159 -1.8631 0.2942 -2.6479 0.0000 0.0000 16.4233 -11.6820 4.8005 -9.2917 0.0000 -0.0000 0.0000 -0.0000 -0.0000 -0.0000 -8.1649 -3.0360 5.1366 -5.5824 7.9982 -4.3448 -0.0000 -0.0000 -1.0406 -1.5657 -8.5960 10.0629 -0.0000 0.0000 0.0000 -0.0000 0.0000 0.0000 -7.5213 -0.2249 -5.9373 4.8089 0.0000 0.0000 -3.5012 -0.6454 12.7384 -3.2719 0.0000 -0.0000 -3.8813 -1.5082 -2.0992 -3.1386 0.0000 -0.0000 -1.6369 7.8905 1.5392 -15.5719 0.0000 -0.0000
 -1.0321 -116.3144 24.5246 -6.5109 -1.4276 173.4161 1.2890 1.2078 0.2257 1.0711 -1.2023 0.0569 -0.5898 3.0547 5.5152 -0.9574 -0.5025 0.5573 -2.4105 -1.6421 -8.3139 4.2338 -3.7274 -14.4301 -10.1030 3.3806 -0.1134 -1.8158 0.2711 -2.6790 0.0000 0.0000 16.4062 -11.6655 4.7985 -9.3053 -0.0000 0.0000 -0.0000 0.0000 -0.0000 -0.0000 -8.1510 -3.0397 5.1349 -5.5961 8.0264 -4.3437 -0.0000 -0.0000 -1.0382 -1.5676 -8.6345 10.0796 0.0000 -0.0000 0.0000 0.0000 0.0000 0.0000 -7.5249 -0.2167 -5.9266 4.8070 0.0000 0.0000 -3.5024 -0.6563 12.7278 -3.2690 0.0000 -0.0000 -3.8893 -1.5009 -2.1108 -3.1371 0.0000 -0.0000 -1.6259 7.9085 1.5518 -15.4972 0.0000 -0.0000
 -1.0356 -116.3116 24.5246 -6.5533 -1.4183 173.4154 1.2857 1.2006 0.2241 1.0716 -1.1990 0.0560 -0.5833 3.0461 5.5197 -0.9621 -0.5001 0.5525 -2.4306 -1.6217 -8.3167 4.2197 -3.7347 -14.4343 -10.0956 3.3875 -0.1079 -1.7704 0.2528 -2.7129 0.0000 0.0000 16.3862 -11.6510 4.7935 -9.3163 -0.0000 -0.0000 -0.0000 -0.0000 -0.0000 -0.0000 -8.1460 -3.0496 5.1283 -5.6039 8.0639 -4.3286 -0.0000 -0.0000 -1.0422 -1.5667 -8.6808 10.1003 -0.0000 -0.0000 0.0000 -0.0000 0.0000 0.0000 -7.5694 -0.2020 -5.9157 4.8185 0.0000 0.0000 -3.5076 -0.6671 12.7153 -3.2637 0.0000 -0.0000 -3.9400 -1.4869 -2.1169 -3.1197 0.0000 -0.0000 -1.6164 7.9239 1.5571 -15.4188 0.0000 -0.0000
 -1.0395 -116.3086 24.5246 -6.5961 -1.4100 173.4156 1.2840 1.1925 0.2216 1.0732 -1.2042 0.0556 -0.5766 3.0446 5.5203 -0.9652 -0.4973 0.5541 -2.4510 -1.6011 -8.3218 4.2044 -3.7414 -14.4351 -10.0882 3.3958 -0.1086 -1.7297 0.2316 -2.7452 0.0000 0.0000 16.3664 -11.6390 4.7889 -9.3277 -0.0000 0.0000 -0.0000 0.0000 -0.0000 -0.0000 -8.1353 -3.0577 5.1222 -5.6132 8.0997 -4.3201 -0.0000 -0.0000 -1.0404 -1.5691 -8.7215 10.1191 0.0000 0.0000 0.0000 -0.0000 -0.0000 0.0000 -7.6145 -0.1871 -5.9058 4.8311 0.0000 0.0000 -3.5131 -0.6791 12.7029 -3.2572 0.0000 -0.0000 -3.9904 -1.4726 -2.1198 -3.1032 0.0000 -0.0000 -1.6065 7.9366 1.5587 -15.3407 0.0000 -0.0000
 -1.0436 -116.3045 24.5247 -6.6150 -1.4062 173.4186 1.3064 1.1811 0.2182 1.0762 -1.2040 0.0553 -0.5709 3.0378 5.5215 -0.9668 -0.4966 0.5525 -2.4674 -1.5760 -8.3244 4.1901 -3.7498 -14.4327 -10.0789 3.4095 -0.1059 -1.6959 0.2082 -2.7827 0.0000 0.0000 16.3495 -11.6313 4.7819 -9.3396 -0.0000 0.0000 0.0000 -0.0000 -0.0000 0.0000 -8.1276 -3.0783 5.1124 -5.6187 8.1529 -4.3029 -0.0000 -0.0000 -1.0384 -1.5670 -8.7670 10.1342 -0.0000 -0.0000 -0.0000 -0.0000 0.0000 0.0000 -7.6266 -0.1735 -5.8974 4.8342 0.0000 0.0000 -3.5175 -0.6922 12.6898 -3.2490 0.0000 -0.0000 -4.0092 -1.4591 -2.1258 -3.0944 0.0000 -0.0000 -1.5973 7.9455 1.5617 -15.2670 0.0000 -0.0000
 -1.0481 -116.3017 24.5247 -6.6617 -1.3984 173.4220 1.3013 1.1698 0.2140 1.0792 -1.2071 0.0546 -0.5615 3.0342 5.5204 -0.9683 -0.4942 0.5535 -2.4841 -1.5534 -8.3284 4.1741 -3.7568 -14.4240 -10.0726 3.4177 -0.1095 -1.6707 0.1886 -2.8132 0.0000 0.0000 16.3325 -11.6279 4.7777 -9.3492 0.0000 -0.0000 0.0000 -0.0000 -0.0000 -0.0000 -8.1168 -3.0937 5.1085 -5.6271 8.1992 -4.2974 -0.0000 -0.0000 -1.0282 -1.5691 -8.8073 10.1463 -0.0000 0.0000 -0.0000 0.0000 -0.0000 0.0000 -7.6775 -0.1579 -5.8882 4.8500 0.0000 0.0000 -3.5246 -0.7049 12.6750 -3.2397 0.0000 -0.0000 -4.0653 -1.4437 -2.1244 -3.0755 0.0000 -0.0000 -1.5904 7.9520 1.5564 -15.2005 0.0000 -0.0000
 -1.0528 -116.2978 24.5248 -6.6747 -1.3908 173.4270 1.3266 1.1596 0.2109 1.0796 -1.2042 0.0542 -0.5474 3.0250 5.5192 -0.9696 -0.4910 0.5501 -2.4938 -1.5310 -8.3276 4.1589 -3.7627 -14.4123 -10.0665 3.4336 -0.1080 -1.6544 0.1620 -2.8469 0.0000 0.0000 16.3188 -11.6291 4.7765 -9.3573 -0.0000 0.0000 0.0000 -0.0000 -0.0000 -0.0000 -8.1192 -3.1308 5.0899 -5.6248 8.2684 -4.2617 -0.0000 -0.0000 -1.0301 -1.5673 -8.8565 10.1595 -0.0000 0.0000 -0.0000 0.0000 0.0000 0.0000 -7.6866 -0.1378 -5.8806 4.8576 0.0000 0.0000 -3.5348 -0.7177 12.6621 -3.2304 0.0000 -0.0000 -4.0798 -1.4232 -2.1187 -3.0639 0.0000 -0.0000 -1.5847 7.9514 1.5467 -15.1408 0.0000 -0.0000
 -1.0575 -116.2950 24.5248 -6.7130 -1.3851 173.4332 1.3246 1.1483 0.2068 1.0831 -1.2068 0.0527 -0.5350 3.0192 5.5150 -0.9690 -0.4897 0.5510 -2.5018 -1.5087 -8.3272 4.1445 -3.7686 -14.3963 -10.0632 3.4447 -0.1111 -1.6486 0.1416 -2.8754 0.0000 0.0000 16.3082 -11.6308 4.7781 -9.3661 -0.0000 0.0000 0.0000 0.0000 -0.0000 0.0000 -8.1111 -3.1502 5.0855 -5.6332 8.3164 -4.2524 -0.0000 -0.0000 -1.0173 -1.5745 -8.8924 10.1674 0.0000 -0.0000 -0.0000 0.0000 -0.0000 0.0000 -7.7279 -0.1226 -5.8711 4.8724 0.0000 0.0000 -3.5434 -0.7305 12.6450 -3.2228 0.0000 -0.0000 -4.1254 -1.4080 -2.1135 -3.0469 0.0000 -0.0000 -1.5830 7.9513 1.5350 -15.0950 0.0000 -0.0000
 -1.0621 -116.2913 24.5249 -6.7208 -1.3811 173.4402 1.3480 1.1373 0.2042 1.0862 -1.2067 0.0524 -0.5201 3.0120 5.5098 -0.9686 -0.4875 0.5486 -2.5025 -1.4904 -8.3228 4.1332 -3.7734 -14.3782 -10.0591 3.4584 -0.1151 -1.6519 0.1182 -2.8977 0.0000 0.0000 16.2973 -11.6388 4.7805 -9.3705 0.0000 0.0000 0.0000 -0.0000 0.0000 0.0000 -8.1134 -3.1888 5.0714 -5.6347 8.3818 -4.2221 -0.0000 -0.0000 -1.0142 -1.5811 -8.9388 10.1774 -0.0000 0.0000 0.0000 0.0000 -0.0000 0.0000 -7.7299 -0.1056 -5.8655 4.8776 0.0000 0.0000 -3.5533 -0.7433 12.6324 -3.2160 0.0000 -0.0000 -4.1322 -1.3907 -2.1078 -3.0377 0.0000 -0.0000 -1.5840 7.9462 1.5231 -15.0596 0.0000 -0.0000
